<?xml version="1.0" encoding="UTF-8"?>
<svg width="640" height="640" display="block" preserveAspectRatio="none" version="1.1" viewBox="0 0 1310.7 1310.7" xmlns="http://www.w3.org/2000/svg">
 <defs>
  <linearGradient id="Gradient1" x1="939.25" x2="483.2" y1="1097.5" y2="284.57" gradientTransform="translate(-396.6 -113.74)" gradientUnits="userSpaceOnUse">
   <stop class="stop0" stop-color="#e9492e" offset="0"/>
   <stop class="stop1" stop-color="#ff9123" offset="1"/>
  </linearGradient>
 </defs>
 <path d="m310.63 78.663c1.47-0.194 2.809-0.197 4.222-0.322 145.19-12.666 277.44 75.013 280.1 229.91 1.749 101.62-43.859 166.33-110.53 235.67-46.775 48.645-97.121 92.92-144.34 140.65-38.496 38.915-75.391 92.301-73.126 148.96-1.056 16.629 10.863 44.029 31.592 41.072 35.833-5.112 51.299-54.688 66.704-81.546 16.39-28.575 31.144-53.086 51.047-78.066 48.107-60.377 101.21-98.354 179.18-107.13l-0.018 228.72c-20.606 20.747-32.601 47.156-46.825 72.435-27.598 49.05-56.537 91.53-100.67 127.13-36.188 31.54-94.379 51.28-141.58 55.69-64.493 6.02-135.65-14.47-185.01-56.8-93.462-80.16-89.959-228.33-37.676-330.67 66.822-133.46 193.94-207.18 294.49-310.67 18.279-18.814 34.773-59.858 10.834-79.543-20.127-16.551-68.066 0.761-89.619 7.212-12.179 3.711-24.457 7.086-36.82 10.122-22.202 5.495-44.734 9.557-67.457 12.161-47.843 5.704-78.084 6.299-125.22-9.683-58.884-19.964-64.144-61.425-27.131-106.93 13.778-16.939 33.789-32.826 50.393-47.723 64.494-57.861 131.15-92.517 217.45-100.63z" fill="url(#Gradient1)"/>
 <path d="m210.74 187.23c13.952-4.487 28.897 3.202 33.358 17.162 4.461 13.961-3.256 28.891-17.225 33.326-13.931 4.423-28.814-3.269-33.263-17.192s3.215-28.82 17.13-33.296z" fill="#26193f"/>
 <path d="m728.41 436.68c20.53-2.038 50.64-0.401 71.69-0.384l128.23 0.013 88.87-0.037c17.88-4e-3 45.39-0.84 62.33 2.275 20.54 3.661 39.7 12.815 55.45 26.489 48.7 42.154 40.34 94.628 40.37 152.54l0.01 129.66-0.02 92.041c0 17.971 0.95 42.552-2.02 59.503-3.36 20.04-12.26 38.74-25.7 53.99-21.26 24.08-50.33 36.46-82.04 38.5-74.61 1.7-154.4 0.25-229.45 0.27l-72.71 0.02c-14.9 0.01-36.85 0.61-50.97-1.73-20.36-3.24-39.5-11.83-55.44-24.9-49.2-40.38-41.44-91.305-41.43-148.27l0.02-125.11-0.03-98.367c-0.01-46.583-3.49-84.081 32.1-120.4 22.95-23.405 48.47-33.539 80.74-36.101z" fill="#26193f"/>
 <path d="m689.19 913.34c-0.01-25.76-1.54-58.597 9.08-81.951 14.98-32.923 54.98-45.07 87.67-52.153 23.9-3.832 36.98-12.184 37.3-38.224 0.1-8.44-7.36-19.513-12.52-26.062-11.59-14.725-24.2-37.801-24.6-57.184-0.54-26.716-4.21-67.481 2.42-92.836 3.55-13.646 10.36-26.227 19.84-36.663 36.37-39.524 126.36-41.678 165.23-4.691 36.6 34.664 27.66 89.411 26.74 134.69-0.23 11.496-6.85 30.691-13.06 39.709-24.34 35.35-44.55 67.746 13.58 80.356 67.81 14.709 99.46 35.702 100.6 108.93 0.08 8.8 0.08 17.6 0 26.39-12.73-0.12-25.47-0.11-38.2 0.02-12.24 0.17-24.47 0.16-36.71-0.03-89.73-1.29-182.67-0.02-272.68-0.14h-30.48z" fill="#fd7325"/>
 <path d="m689.19 913.34c-0.01-25.76-1.54-58.597 9.08-81.951 14.98-32.923 54.98-45.07 87.67-52.153 23.9-3.832 36.98-12.184 37.3-38.224 0.1-8.44-7.36-19.513-12.52-26.062-11.59-14.725-24.2-37.801-24.6-57.184-0.54-26.716-4.21-67.481 2.42-92.836 3.55-13.646 10.36-26.227 19.84-36.663 36.37-39.524 126.36-41.678 165.23-4.691 36.6 34.664 27.66 89.411 26.74 134.69-0.23 11.496-6.85 30.691-13.06 39.709-24.34 35.35-44.55 67.746 13.58 80.356 67.81 14.709 99.46 35.702 100.6 108.93 0.08 8.8 0.08 17.6 0 26.39-12.73-0.12-25.47-0.11-38.2 0.02 1.44-7.2 1.56-15.12 1.48-22.46-0.98-86.055-87.39-68.763-132.04-112.97-38.39-38.019 2.81-82.94 20.14-118.93 8.71-18.088 14.55-38.341 14.48-58.542-0.08-18.505-6.76-35.603-20.16-48.551-15.21-14.702-35.36-20.009-56.1-19.35-20.8 0.661-42.19 7.269-56.53 23-11.08 12.155-17.42 28.411-19.94 44.5-11.46 73.437 41.47 96.84 43.54 143.7 3.05 69.129-83.7 54.533-118.53 93.595-19.14 21.473-17.84 48.975-16.21 75.845z" fill="#e0392e"/>
 <path d="m753.88 913.5c4.64-27.291 9.4-46.951 34.38-63.118 34.66-22.425 89.94-40.863 131.09-31.622 55.8 12.528 105.82 29.968 107.21 94.88-89.73-1.29-182.67-0.02-272.68-0.14z" fill="#fec31c"/>
 <path d="m883.31 566.56c78.01-5.014 67.56 101.46 12.48 114.77-10.89 0.463-23.2 0.586-32.19-6.438-36.91-28.831-32.21-99.532 19.71-108.33z" fill="#fec31c"/>
 <path d="m1196.4 662.76c3 1.996 11.77 10.222 14.77 13.126 53.19 51.549 80.07 125.25 80.19 198.73 0.12 72.869-21.75 143.61-73.51 196.45-78.39 82.82-208.58 87.02-314.19 64.48-137.5-29.35-253.18-66.36-366.62 49.68-12.05 12.76-39.993 59.56-59.539 45.88-3.884-2.72-4.724-9.13-4.477-13.68 2.545-46.89 26.452-92.12 59.639-124.68 24.527-24.31 48.382-39.1 80.042-51.8 68.6-27.57 146.13-28.42 218.66-19.27 109.63 13.82 232.23 42.47 321.4-44.79 36.58-35.79 43.18-72.86 42.67-122.49-0.22-20.599 0.27-43.159 0.39-64.028z" fill="#e0392e"/>
</svg>
